HIERARCHY
ROOT Hips
{
	OFFSET 0.00000 0.00000 0.00000
	CHANNELS 6 Xposition Yposition Zposition Zrotation Yrotation Xrotation 
	JOINT LHipJoint
	{
		OFFSET 0 0 0
		CHANNELS 3 Zrotation Yrotation Xrotation
		JOINT LeftUpLeg
		{
			OFFSET 1.74857 -1.85566 0.69197
			CHANNELS 3 Zrotation Yrotation Xrotation
			JOINT LeftLeg
			{
				OFFSET 2.40003 -6.59403 0.00000
				CHANNELS 3 Zrotation Yrotation Xrotation
				JOINT LeftFoot
				{
					OFFSET 2.82169 -7.75254 0.00000
					CHANNELS 3 Zrotation Yrotation Xrotation
					JOINT LeftToeBase
					{
						OFFSET 0.16466 -0.45240 2.26890
						CHANNELS 3 Zrotation Yrotation Xrotation
						End Site
						{
							OFFSET 0.00000 -0.00000 1.16486
						}
					}
				}
			}
		}
	}
	JOINT RHipJoint
	{
		OFFSET 0 0 0
		CHANNELS 3 Zrotation Yrotation Xrotation
		JOINT RightUpLeg
		{
			OFFSET -1.64169 -1.85566 0.69197
			CHANNELS 3 Zrotation Yrotation Xrotation
			JOINT RightLeg
			{
				OFFSET -2.41814 -6.64379 0.00000
				CHANNELS 3 Zrotation Yrotation Xrotation
				JOINT RightFoot
				{
					OFFSET -2.80588 -7.70911 0.00000
					CHANNELS 3 Zrotation Yrotation Xrotation
					JOINT RightToeBase
					{
						OFFSET -0.19098 -0.52472 2.25401
						CHANNELS 3 Zrotation Yrotation Xrotation
						End Site
						{
							OFFSET -0.00000 -0.00000 1.16333
						}
					}
				}
			}
		}
	}
	JOINT LowerBack
	{
		OFFSET 0 0 0
		CHANNELS 3 Zrotation Yrotation Xrotation
		JOINT Spine
		{
			OFFSET -0.02828 2.14690 -0.11061
			CHANNELS 3 Zrotation Yrotation Xrotation
			JOINT Spine1
			{
				OFFSET -0.00167 2.15299 0.00759
				CHANNELS 3 Zrotation Yrotation Xrotation
				JOINT Neck
				{
					OFFSET 0 0 0
					CHANNELS 3 Zrotation Yrotation Xrotation
					JOINT Neck1
					{
						OFFSET -0.09296 1.90118 0.07197
						CHANNELS 3 Zrotation Yrotation Xrotation
						JOINT Head
						{
							OFFSET 0.08490 1.89526 -0.24604
							CHANNELS 3 Zrotation Yrotation Xrotation
							End Site
							{
								OFFSET 0.03186 1.92109 -0.09483
							}
						}
					}
				}
				JOINT LeftShoulder
				{
					OFFSET 0 0 0
					CHANNELS 3 Zrotation Yrotation Xrotation
					JOINT LeftArm
					{
						OFFSET 3.21569 1.44644 -0.03720
						CHANNELS 3 Zrotation Yrotation Xrotation
						JOINT LeftForeArm
						{
							OFFSET 5.47651 -0.00000 -0.00000
							CHANNELS 3 Zrotation Yrotation Xrotation
							JOINT LeftHand
							{
								OFFSET 3.09058 -0.00000 -0.00000
								CHANNELS 3 Zrotation Yrotation Xrotation
								JOINT LeftFingerBase
								{
									OFFSET 0 0 0
									CHANNELS 3 Zrotation Yrotation Xrotation
									JOINT LeftHandIndex1
									{
										OFFSET 0.77161 -0.00000 -0.00000
										CHANNELS 3 Zrotation Yrotation Xrotation
										End Site
										{
											OFFSET 0.62209 -0.00000 -0.00000
										}
									}
								}
								JOINT LThumb
								{
									OFFSET 0 0 0
									CHANNELS 3 Zrotation Yrotation Xrotation
									End Site
									{
										OFFSET 0.63159 -0.00000 0.63159
									}
								}
							}
						}
					}
				}
				JOINT RightShoulder
				{
					OFFSET 0 0 0
					CHANNELS 3 Zrotation Yrotation Xrotation
					JOINT RightArm
					{
						OFFSET -3.38693 1.28904 -0.07093
						CHANNELS 3 Zrotation Yrotation Xrotation
						JOINT RightForeArm
						{
							OFFSET -5.14182 -0.00000 -0.00000
							CHANNELS 3 Zrotation Yrotation Xrotation
							JOINT RightHand
							{
								OFFSET -3.35565 -0.00000 -0.00000
								CHANNELS 3 Zrotation Yrotation Xrotation
								JOINT RightFingerBase
								{
									OFFSET 0 0 0
									CHANNELS 3 Zrotation Yrotation Xrotation
									JOINT RightHandIndex1
									{
										OFFSET -0.80104 -0.00000 -0.00000
										CHANNELS 3 Zrotation Yrotation Xrotation
										End Site
										{
											OFFSET -0.64582 -0.00000 -0.00000
										}
									}
								}
								JOINT RThumb
								{
									OFFSET 0 0 0
									CHANNELS 3 Zrotation Yrotation Xrotation
									End Site
									{
										OFFSET -0.65568 -0.00000 0.65568
									}
								}
							}
						}
					}
				}
			}
		}
	}
}
MOTION
Frames: 10
Frame Time: .0083333
-0.1938 18.044 -0.7983 0 0 0 0 0 0 -21 0 0 0 0 0 0 0 0 0 0 0 0 0 0 21 0 0 0 0 0 0 0 0 0 0 0 0 0 0 0 0 0 0 0 0 0 0 -16 0 0 21 0 0 11 0 0 0 -8 0 0 0 0 0 0 0 0 0 0 0 0 0 0 0 0 0 0 0 0 8 0 0 0 0 0 0 0 0 0 0 0 0 0 0 0 0 0
-0.1938 18.0440 -0.7983 3.0636 -2.7034 2.8305 0.0000 0.0000 0.0000 -22.5333 -3.6445 0.9987 0.5114 4.5836 12.7247 0.6948 6.6564 -19.5485 0.5967 -4.9452 -13.7524 0.0000 0.0000 0.0000 15.5491 6.1991 -4.3614 -1.3795 -7.4322 21.0022 -0.7314 -9.0158 -21.8415 -0.3664 3.8884 -10.7630 -2.9266 1.8042 2.4320 -1.2943 2.3166 0.4937 0.2371 1.1635 -0.9186 -7.3576 -3.6658 0.1901 4.6965 -5.1150 9.9583 2.7146 -2.6479 3.5899 -0.0000 0.0000 0.0000 -41.4184 11.8849 91.1040 99.0849 -59.6858 -67.8595 -0.0000 -0.0000 2.6355 6.3551 3.6651 0.4079 -7.1250 0.0000 -0.0000 -16.4104 33.3188 4.8710 -0.0000 0.0000 0.0000 47.3412 -12.4931 89.7682 -81.3942 59.7183 -52.5542 0.0000 -0.0000 -8.9987 0.2741 30.3801 0.1386 7.1250 -0.0000 -0.0000 17.9373 -0.8509 18.6096
-0.1897 18.0447 -0.7970 3.0120 -2.6395 2.8709 0.0000 0.0000 0.0000 -22.4908 -3.7328 0.9082 0.5215 4.6280 12.8504 0.6893 6.6823 -19.5120 0.6249 -5.0587 -14.0762 0.0000 0.0000 0.0000 15.5923 6.1696 -4.3860 -1.3757 -7.4224 20.9730 -0.7301 -9.0348 -21.8457 -0.3597 3.8528 -10.6629 -2.8341 1.7761 2.3998 -1.2944 2.2825 0.4786 0.1874 1.1463 -0.9116 -7.3323 -3.6634 0.2090 4.7033 -5.1134 9.9123 2.7124 -2.6458 3.5692 -0.0000 -0.0000 0.0000 -41.4145 11.9171 91.0668 99.0486 -59.6883 -67.8281 -0.0000 -0.0000 2.6264 6.2826 3.6538 0.4020 -7.1250 0.0000 -0.0000 -16.4655 33.3048 4.8944 -0.0000 -0.0000 0.0000 47.3797 -12.5023 89.7626 -81.3500 59.7154 -52.5160 0.0000 -0.0000 -9.0310 0.2466 30.4000 0.1248 7.1250 -0.0000 -0.0000 17.9219 -0.8300 18.5988
-0.1861 18.0461 -0.7971 2.9853 -2.5689 2.9492 0.0000 0.0000 0.0000 -22.4818 -3.9025 0.8443 0.5253 4.6446 12.8975 0.6942 6.7051 -19.5794 0.6125 -5.0092 -13.9348 0.0000 0.0000 0.0000 15.5991 6.1695 -4.4611 -1.3739 -7.4177 20.9590 -0.7284 -9.0403 -21.8352 -0.3602 3.8558 -10.6713 -2.7817 1.7541 2.3481 -1.2961 2.2556 0.4434 0.1584 1.1331 -0.9160 -7.2888 -3.6624 0.2110 4.6859 -5.1122 9.9186 2.6983 -2.6442 3.5684 0.0000 -0.0000 0.0000 -41.3997 11.9153 91.1006 99.0946 -59.6851 -67.8678 -0.0000 -0.0000 2.6314 6.3160 3.8153 0.4220 -7.1250 0.0000 -0.0000 -16.4703 33.4620 4.8305 0.0000 -0.0000 0.0000 47.4041 -12.5387 89.7657 -81.3460 59.7151 -52.5126 0.0000 -0.0000 -9.0716 0.0508 30.3076 0.0256 7.1250 -0.0000 -0.0000 17.8141 -0.9041 18.4506
-0.1832 18.0471 -0.7962 3.0114 -2.5884 2.9757 0.0000 0.0000 0.0000 -22.5342 -3.9676 0.8345 0.5261 4.6482 12.9078 0.6948 6.7732 -19.6388 0.6071 -4.9872 -13.8720 0.0000 0.0000 0.0000 15.5569 6.2326 -4.4738 -1.3723 -7.4136 20.9468 -0.7218 -9.0797 -21.8080 -0.3696 3.9051 -10.8098 -2.8253 1.7600 2.3201 -1.2850 2.2633 0.4300 0.1945 1.1372 -0.9163 -7.2495 -3.6583 0.2050 4.6204 -5.1016 9.9276 2.6686 -2.6396 3.5676 0.0000 0.0000 0.0000 -41.4768 11.9219 91.1075 99.0074 -59.6912 -67.7925 -0.0000 -0.0000 2.6545 6.4234 3.9492 0.4443 -7.1250 0.0000 -0.0000 -16.4114 33.5959 4.7565 0.0000 0.0000 0.0000 47.3848 -12.5468 89.7850 -81.3331 59.7143 -52.5014 0.0000 -0.0000 -9.0581 -0.1073 30.2526 -0.0541 7.1250 -0.0000 -0.0000 17.7267 -0.9452 18.3370
-0.1810 18.0454 -0.7946 3.0684 -2.6191 2.9718 0.0000 0.0000 0.0000 -22.6051 -3.9207 0.8448 0.5223 4.6316 12.8608 0.6902 6.7845 -19.6004 0.6039 -4.9745 -13.8359 0.0000 0.0000 0.0000 15.4848 6.2730 -4.4664 -1.3742 -7.4185 20.9614 -0.7248 -9.0614 -21.8205 -0.3590 3.8492 -10.6528 -2.9099 1.7599 2.3020 -1.2792 2.2619 0.4280 0.2482 1.1367 -0.9117 -7.2542 -3.6487 0.2131 4.5878 -5.0860 9.9172 2.6588 -2.6331 3.5601 -0.0000 -0.0000 0.0000 -41.5548 11.9438 91.0788 98.9277 -59.6967 -67.7237 -0.0000 -0.0000 2.7109 6.4862 3.9949 0.4538 -7.1250 0.0000 -0.0000 -16.3707 33.6427 4.7245 -0.0000 -0.0000 0.0000 47.3416 -12.5161 89.8344 -81.3201 59.7134 -52.4902 0.0000 -0.0000 -9.0640 -0.2283 30.2571 -0.1150 7.1250 -0.0000 -0.0000 17.6595 -0.9321 18.2644
-0.1778 18.0452 -0.7929 3.0992 -2.5863 2.9267 0.0000 0.0000 0.0000 -22.6487 -3.9276 0.9364 0.5173 4.6100 12.7994 0.6931 6.7485 -19.6024 0.5842 -4.8940 -13.6065 0.0000 0.0000 0.0000 15.4511 6.2277 -4.4184 -1.3756 -7.4222 20.9723 -0.7235 -9.0927 -21.8358 -0.3632 3.8712 -10.7145 -2.9441 1.7435 2.3257 -1.2686 2.2385 0.4401 0.2783 1.1250 -0.9137 -7.2530 -3.6399 0.2169 4.5454 -5.0707 9.9225 2.6445 -2.6269 3.5584 0.0000 -0.0000 0.0000 -41.5797 11.9579 91.0719 98.9880 -59.6925 -67.7758 -0.0000 -0.0000 2.7078 6.4366 4.0842 0.4604 -7.1250 0.0000 -0.0000 -16.4274 33.7267 4.7072 0.0000 -0.0000 0.0000 47.2758 -12.4950 89.8981 -81.3451 59.7150 -52.5118 0.0000 -0.0000 -9.0864 -0.3503 30.2552 -0.1765 7.1250 -0.0000 -0.0000 17.5917 -0.9249 18.1892
-0.1749 18.0452 -0.7908 3.1571 -2.5652 2.9057 0.0000 0.0000 0.0000 -22.7195 -3.9032 0.9826 0.5151 4.6002 12.7717 0.6970 6.6894 -19.5968 0.5764 -4.8617 -13.5145 0.0000 0.0000 0.0000 15.3841 6.1871 -4.3903 -1.3757 -7.4223 20.9727 -0.7264 -9.1052 -21.8728 -0.3670 3.8914 -10.7714 -3.0238 1.7356 2.3130 -1.2510 2.2272 0.4584 0.3419 1.1192 -0.8913 -7.2963 -3.6304 0.2026 4.5404 -5.0548 9.9055 2.6512 -2.6205 3.5556 0.0000 -0.0000 0.0000 -41.6853 11.9653 91.0255 98.9454 -59.6955 -67.7390 -0.0000 -0.0000 2.7645 6.2701 4.1470 0.4552 -7.1250 0.0000 -0.0000 -16.5718 33.7797 4.7294 0.0000 -0.0000 0.0000 47.2313 -12.4809 89.9117 -81.3523 59.7155 -52.5181 0.0000 -0.0000 -9.0964 -0.2484 30.2000 -0.1250 7.1250 -0.0000 -0.0000 17.6485 -0.9851 18.2346
-0.1735 18.0447 -0.7899 3.1302 -2.5517 2.9048 0.0000 0.0000 0.0000 -22.6829 -3.8604 0.9680 0.5159 4.6038 12.7818 0.7073 6.5507 -19.5949 0.5364 -4.6929 -13.0348 0.0000 0.0000 0.0000 15.4132 6.1836 -4.3685 -1.3730 -7.4154 20.9521 -0.7270 -9.1010 -21.8752 -0.3602 3.8554 -10.6701 -3.0259 1.7430 2.2911 -1.2226 2.2390 0.4864 0.3730 1.1244 -0.8518 -7.3453 -3.6468 0.1138 4.5697 -5.0720 9.9093 2.6687 -2.6289 3.5784 0.0000 0.0000 0.0000 -41.7411 11.9507 90.9642 98.9485 -59.6953 -67.7417 -0.0000 -0.0000 2.8786 6.2576 4.1888 0.4589 -7.1250 0.0000 -0.0000 -16.5901 33.8195 4.7184 0.0000 0.0000 0.0000 47.2429 -12.4862 89.8396 -81.3299 59.7140 -52.4987 0.0000 -0.0000 -9.0527 -0.0760 30.1930 -0.0382 7.1250 -0.0000 -0.0000 17.7443 -1.0042 18.3379
-0.1725 18.0438 -0.7903 3.0224 -2.5482 2.8976 0.0000 0.0000 0.0000 -22.5602 -3.8224 0.9630 0.5158 4.6033 12.7805 0.7101 6.5142 -19.5956 0.5269 -4.6518 -12.9180 0.0000 0.0000 0.0000 15.5388 6.2157 -4.3457 -1.3733 -7.4161 20.9540 -0.7215 -9.1453 -21.8632 -0.3487 3.7939 -10.4977 -2.9236 1.7460 2.3015 -1.1899 2.2460 0.5081 0.3494 1.1274 -0.8330 -7.3465 -3.6543 0.0362 4.5720 -5.0771 9.9144 2.6685 -2.6305 3.5955 0.0000 -0.0000 0.0000 -41.7848 11.9175 90.8876 98.8709 -59.7005 -67.6747 -0.0000 -0.0000 2.9107 6.2647 4.2450 0.4656 -7.1250 0.0000 -0.0000 -16.5956 33.8740 4.6972 0.0000 -0.0000 0.0000 47.2694 -12.4664 89.7925 -81.2839 59.7110 -52.4590 0.0000 -0.0000 -9.0179 -0.0518 30.1689 -0.0260 7.1250 -0.0000 -0.0000 17.7579 -1.0289 18.3454
